<?xml version="1.0" encoding="UTF-8" standalone="no"?> <!-- Created with Vectornator for iOS (http://vectornator.io/) --><!DOCTYPE svg PUBLIC "-//W3C//DTD SVG 1.1//EN" "http://www.w3.org/Graphics/SVG/1.1/DTD/svg11.dtd">
<svg style="fill-rule:evenodd;clip-rule:evenodd;stroke-linecap:round;stroke-linejoin:round;" xmlns:vectornator="http://vectornator.io" xmlns:xlink="http://www.w3.org/1999/xlink" xmlns="http://www.w3.org/2000/svg" xml:space="preserve" version="1.1" viewBox="0 0 524 524">
<metadata>
<vectornator:setting key="DimensionsVisible" value="1"/>
<vectornator:setting key="SnapToGrid" value="1"/>
<vectornator:setting key="SnapToPoints" value="1"/>
<vectornator:setting key="GuidesVisible" value="1"/>
<vectornator:setting key="RulersVisible" value="1"/>
<vectornator:setting key="SnapToEdges" value="1"/>
<vectornator:setting key="DisplayWhiteBackground" value="0"/>
<vectornator:setting key="SnapToGuides" value="1"/>
<vectornator:setting key="GridSpacing" value="36"/>
<vectornator:setting key="Units" value="Pixels"/>
<vectornator:setting key="DynamicGuides" value="1"/>
<vectornator:setting key="New" value="1"/>
</metadata>
<defs/>
<g id="Katman 1" vectornator:layerName="Katman 1">
<path d="M259.309+15.6205C123.958+15.6205+14.235+125.344+14.235+260.694C14.235+396.045+123.958+505.768+259.309+505.768C394.659+505.768+504.383+396.045+504.383+260.694C504.383+125.344+394.659+15.6205+259.309+15.6205Z" opacity="1" fill="#f9dbd2"/>
<path d="M67.4451+298.576C64.2406+298.573+61.6414+301.17+61.6414+304.375C61.6414+307.579+64.2406+310.176+67.4451+310.174C70.6496+310.176+73.2487+307.579+73.2487+304.375C73.2487+301.17+70.6496+298.573+67.4451+298.576ZM453.921+137.12C451.449+137.12+449.445+139.124+449.445+141.597C449.445+144.069+451.449+146.073+453.921+146.073C456.394+146.073+458.398+144.069+458.398+141.597C458.398+139.124+456.394+137.12+453.921+137.12Z" opacity="1" fill="#ffffff"/>
<path d="M436.708+11.2288C433.506+11.2288+430.91+13.825+430.91+17.0276C430.91+20.2302+433.506+22.8264+436.708+22.8264C439.911+22.8264+442.507+20.2302+442.507+17.0276C442.507+13.825+439.911+11.2288+436.708+11.2288ZM70.6848+348.802C67.4822+348.802+64.886+351.398+64.886+354.601C64.886+357.803+67.4822+360.399+70.6848+360.399C73.8874+360.399+76.4836+357.803+76.4836+354.601C76.4836+351.398+73.8874+348.802+70.6848+348.802ZM472.319+4.90646C457.829+4.8978+446.078+16.6419+446.078+31.1319C446.078+45.6219+457.829+57.366+472.319+57.3573C486.809+57.366+498.56+45.6219+498.56+31.1319C498.56+16.6419+486.809+4.8978+472.319+4.90646Z" opacity="1" fill="#f1bc19"/>
<path d="M498.545+78.1635C491.732+78.1602+486.208+83.6818+486.208+90.4941C486.208+97.3065+491.732+102.828+498.545+102.825C505.357+102.828+510.881+97.3065+510.881+90.4941C510.881+83.6818+505.357+78.1602+498.545+78.1635Z" opacity="1" fill="#ee3e54"/>
<path d="M439.739+421.215C435.33+421.21+431.254+423.559+429.049+427.376C426.843+431.193+426.843+435.897+429.049+439.714C431.254+443.531+435.33+445.881+439.739+445.876C444.147+445.881+448.223+443.531+450.429+439.714C452.634+435.897+452.634+431.193+450.428+427.376C448.223+423.559+444.147+421.21+439.739+421.215ZM26.3562+322.576C11.8687+322.571+0.121682+334.314+0.12168+348.802C0.121676+363.289+11.8687+375.032+26.3562+375.027C40.8401+375.027+52.5816+363.286+52.5816+348.802C52.5816+334.318+40.8401+322.576+26.3562+322.576Z" opacity="1" fill="#fbcd59"/>
<path d="M93.3629+494.432C88.9544+494.428+84.8787+496.777+82.673+500.594C80.4674+504.411+80.4674+509.115+82.673+512.932C84.8787+516.749+88.9544+519.098+93.3629+519.094C97.7714+519.098+101.847+516.749+104.053+512.932C106.258+509.115+106.258+504.411+104.053+500.594C101.847+496.777+97.7714+494.428+93.3629+494.432Z" opacity="1" fill="#ee3e54"/>
<path d="M50.8406+252.919C41.6558+252.919+34.21+260.365+34.21+269.55C34.21+278.734+41.6558+286.18+50.8406+286.18C60.0255+286.18+67.4712+278.734+67.4712+269.55C67.4712+260.365+60.0255+252.919+50.8406+252.919Z" opacity="1" fill="#ffffff"/>
<path d="M262.719+359.581C258.209+359.581+253.621+359.208+249.092+358.475C210.968+352.303+182.223+317.792+182.223+278.202L182.223+162.148C182.223+122.558+210.968+88.0463+249.092+81.8745C253.621+81.1415+258.209+80.7684+262.719+80.7684C307.113+80.7684+343.228+116.268+343.228+159.903L343.228+280.447C343.228+324.082+307.113+359.581+262.719+359.581ZM262.732+111.785C259.119+111.785+255.46+112.184+251.848+112.956C229.863+117.682+213.9+137.99+213.9+161.245L213.9+279.105C213.9+302.359+229.857+322.668+251.848+327.393C255.46+328.166+259.119+328.565+262.732+328.565C275.737+328.565+287.982+323.558+297.21+314.487C306.458+305.383+311.55+293.301+311.55+280.453L311.55+159.903C311.55+133.37+289.644+111.785+262.732+111.785Z" opacity="1" fill="#84a7d7"/>
<path d="M262.732+76.187L262.732+85.3498C304.586+85.3498+338.646+118.794+338.646+159.903L338.646+280.453C338.646+321.555+304.586+355+262.725+355C258.458+355+254.112+354.646+249.825+353.953C213.9+348.134+186.804+315.567+186.804+278.202L186.804+162.148C186.804+124.783+213.894+92.2154+249.825+86.397C254.112+85.7033+258.458+85.3498+262.725+85.3498L262.732+76.187M262.725+333.14C292.171+333.14+316.132+309.5+316.132+280.447L316.132+159.903C316.132+130.85+292.171+107.21+262.725+107.21C258.792+107.21+254.806+107.635+250.886+108.48C226.8+113.657+209.319+135.85+209.319+161.245L209.319+279.105C209.319+304.499+226.8+326.693+250.886+331.87C254.806+332.714+258.792+333.14+262.725+333.14M262.725+76.187C258.019+76.187+253.216+76.5666+248.359+77.352C207.002+84.0474+177.642+120.908+177.642+162.148L177.642+278.202C177.642+319.441+207.002+356.302+248.359+362.998C253.216+363.783+258.013+364.163+262.725+364.163C309.639+364.163+347.809+326.608+347.809+280.447L347.809+159.903C347.809+113.735+309.646+76.1804+262.725+76.187L262.725+76.187ZM262.725+323.977C259.486+323.977+256.174+323.637+252.81+322.91C232.377+318.519+218.482+299.676+218.482+279.099L218.482+161.245C218.482+140.667+232.377+121.831+252.81+117.433C256.174+116.713+259.486+116.366+262.725+116.366C287.118+116.366+306.969+135.896+306.969+159.896L306.969+280.447C306.969+304.454+287.118+323.977+262.725+323.977L262.725+323.977Z" opacity="1" fill="#472b29"/>
<path d="M262.725+205.122C196.577+205.122+142.954+258.745+142.954+324.893C142.954+391.041+196.577+444.665+262.725+444.665C328.873+444.665+382.497+391.041+382.497+324.893C382.497+258.745+328.873+205.122+262.725+205.122Z" opacity="1" fill="#f2df5e"/>
<path d="M262.725+209.703C326.244+209.703+377.916+261.375+377.916+324.893C377.916+388.412+326.244+440.083+262.725+440.083C199.207+440.083+147.535+388.412+147.535+324.893C147.535+261.375+199.207+209.703+262.725+209.703M262.725+200.54C194.05+200.54+138.372+256.218+138.372+324.893C138.372+393.569+194.05+449.246+262.725+449.246C331.401+449.246+387.078+393.569+387.078+324.893C387.078+256.218+331.401+200.54+262.725+200.54L262.725+200.54Z" opacity="1" fill="#472b29"/>
<path d="M257.817+207.085L261.089+207.085L261.089+442.701L257.817+442.701L257.817+207.085Z" opacity="1" fill="#472b29"/>
<path d="M141.645+323.257L377.261+323.257L377.261+326.529L141.645+326.529L141.645+323.257Z" opacity="1" fill="#472b29"/>
<path d="M174.999+407.036L341.597+240.432L343.911+242.746L177.313+409.35L174.999+407.036Z" opacity="1" fill="#472b29"/>
<path d="M199.184+426.138L316.878+222.015L319.719+223.653L202.025+427.776L199.184+426.138Z" opacity="1" fill="#472b29"/>
<path d="M229.968+438.971L226.813+438.1L288.938+210.816L292.092+211.686L229.968+438.971Z" opacity="1" fill="#472b29"/>
<path d="M146.35+357.906L145.48+354.751L372.555+291.881L373.426+295.035L146.35+357.906Z" opacity="1" fill="#472b29"/>
<path d="M158.445+385.545L156.796+382.717L360.46+264.242L362.11+267.069L158.445+385.545Z" opacity="1" fill="#472b29"/>
<g opacity="1">
<path d="M174.996+242.753L177.31+240.439L343.914+407.038L341.6+409.352L174.996+242.753Z" opacity="1" fill="#472b29"/>
<path d="M199.127+223.67L201.967+222.031L319.779+426.086L316.939+427.726L199.127+223.67Z" opacity="1" fill="#472b29"/>
<path d="M288.938+438.971L226.813+211.686L229.968+210.816L292.092+438.1L288.938+438.971Z" opacity="1" fill="#472b29"/>
<path d="M372.555+357.906L145.48+295.035L146.35+291.881L373.426+354.751L372.555+357.906Z" opacity="1" fill="#472b29"/>
<path d="M360.46+385.545L156.796+267.069L158.445+264.242L362.11+382.717L360.46+385.545Z" opacity="1" fill="#472b29"/>
</g>
<path d="M262.725+243.082C217.531+243.066+180.886+279.699+180.886+324.893C180.886+370.087+217.531+406.72+262.725+406.705C307.919+406.72+344.565+370.087+344.565+324.893C344.565+279.699+307.919+243.066+262.725+243.082Z" opacity="1" fill="#84a7d7"/>
<path d="M262.725+409.977C215.811+409.977+177.642+371.807+177.642+324.893C177.642+277.979+215.811+239.81+262.725+239.81C272.484+239.81+282.059+241.452+291.189+244.685C292.897+245.294+293.781+247.166+293.185+248.868C292.577+250.576+290.698+251.459+289.003+250.864C280.58+247.866+271.738+246.354+262.725+246.354C219.418+246.354+184.186+281.586+184.186+324.893C184.186+368.201+219.418+403.432+262.725+403.432C272.379+403.432+281.804+401.698+290.737+398.294C292.446+397.646+294.318+398.491+294.965+400.179C295.613+401.874+294.769+403.766+293.081+404.407C283.388+408.105+273.177+409.977+262.725+409.977Z" opacity="1" fill="#472b29"/>
<path d="M326.374+379.569C325.655+379.569+324.921+379.334+324.319+378.843C322.912+377.704+322.696+375.649+323.835+374.242C335.073+360.334+341.264+342.807+341.264+324.893C341.264+314.199+339.157+303.832+334.994+294.093C334.287+292.431+335.06+290.506+336.722+289.799C338.397+289.086+340.309+289.858+341.015+291.527C345.518+302.084+347.809+313.309+347.809+324.893C347.809+344.299+341.1+363.286+328.914+378.359C328.272+379.157+327.323+379.569+326.374+379.569Z" opacity="1" fill="#472b29"/>
<path d="M325.308+275.466C324.378+275.466+323.455+275.067+322.807+274.301C318.278+268.934+313.056+264.189+307.29+260.21C305.797+259.189+305.431+257.147+306.458+255.661C307.479+254.162+309.521+253.796+311.007+254.83C317.251+259.137+322.899+264.268+327.801+270.086C328.973+271.467+328.79+273.529+327.409+274.694C326.8+275.211+326.054+275.466+325.308+275.466Z" opacity="1" fill="#472b29"/>
<g opacity="1">
<path d="M251.612+349.437L256.697+322.707C256.822+322.079+256.56+321.451+256.049+321.071C253.058+318.911+251.272+315.449+251.272+311.803C251.272+305.488+256.409+300.35+262.725+300.35C269.041+300.35+274.179+305.488+274.179+311.803C274.179+315.449+272.392+318.911+269.401+321.071C268.891+321.451+268.635+322.079+268.753+322.707L273.839+349.437L251.612+349.437Z" opacity="1" fill="#6673a7"/>
<path d="M262.725+301.986C268.138+301.986+272.543+306.391+272.543+311.803C272.543+314.971+271.044+317.864+268.439+319.749C267.405+320.495+266.901+321.765+267.137+323.015L271.855+347.8L253.582+347.8L258.301+323.015C258.537+321.765+258.033+320.495+256.998+319.749C254.407+317.864+252.908+314.971+252.908+311.803C252.908+306.391+257.313+301.986+262.725+301.986M262.725+298.714C255.493+298.714+249.635+304.571+249.635+311.803C249.635+316.175+251.802+320.024+255.094+322.4L249.635+351.073L275.815+351.073L270.357+322.4C273.649+320.024+275.815+316.175+275.815+311.803C275.815+304.571+269.957+298.714+262.725+298.714L262.725+298.714Z" opacity="1" fill="#472b29"/>
</g>
</g>
</svg>
